<?xml version="1.0" encoding="utf-8"?>
<!-- Generator: Adobe Illustrator 21.1.0, SVG Export Plug-In . SVG Version: 6.00 Build 0)  -->
<svg version="1.1" id="Camada_1" xmlns="http://www.w3.org/2000/svg" xmlns:xlink="http://www.w3.org/1999/xlink" x="0px" y="0px"
	 viewBox="0 0 60 60" style="enable-background:new 0 0 60 60;" xml:space="preserve">
<style type="text/css">
	.st0{fill:#231F20;}
</style>
<g>
	<g>
		<path class="st0" d="M54.7,56H5.3V6.5h49.5C54.7,6.5,54.7,56,54.7,56z M5.7,55.5h48.6V6.9H5.7V55.5z"/>
	</g>
	<g>
		<rect x="10.1" y="4.1" class="st0" width="0.4" height="6.3"/>
	</g>
	<g>
		<rect x="16.4" y="4.1" class="st0" width="0.4" height="6.3"/>
	</g>
	<g>
		<rect x="23" y="4.1" class="st0" width="0.4" height="6.3"/>
	</g>
	<g>
		<rect x="29.3" y="4.1" class="st0" width="0.4" height="6.3"/>
	</g>
	<g>
		<rect x="35.6" y="4.1" class="st0" width="0.4" height="6.3"/>
	</g>
	<g>
		<rect x="42.3" y="4.1" class="st0" width="0.4" height="6.3"/>
	</g>
	<g>
		<rect x="48.6" y="4.1" class="st0" width="0.4" height="6.3"/>
	</g>
	<g>
		<path class="st0" d="M45.1,25H14v-8.3h31.2V25z M14.4,24.5h30.3v-7.4H14.4C14.4,17.1,14.4,24.5,14.4,24.5z"/>
	</g>
	<g>
		<rect x="14.2" y="29.6" class="st0" width="30.7" height="0.4"/>
	</g>
	<g>
		<rect x="14.3" y="34.8" class="st0" width="30.7" height="0.4"/>
	</g>
	<g>
		<rect x="14.3" y="39.6" class="st0" width="30.7" height="0.4"/>
	</g>
	<g>
		<rect x="14.3" y="44.4" class="st0" width="30.7" height="0.4"/>
	</g>
	<g>
		<rect x="14.3" y="49.2" class="st0" width="30.7" height="0.4"/>
	</g>
</g>
</svg>
