<?xml version="1.0" encoding="utf-8"?>
<!-- Generator: Adobe Illustrator 22.1.0, SVG Export Plug-In . SVG Version: 6.00 Build 0)  -->
<svg version="1.1" id="Camada_1" xmlns="http://www.w3.org/2000/svg" xmlns:xlink="http://www.w3.org/1999/xlink" x="0px" y="0px"
	 viewBox="0 0 70 70" style="enable-background:new 0 0 70 70;" xml:space="preserve">
<style type="text/css">
	.st0{clip-path:url(#SVGID_2_);}
	.st1{clip-path:url(#SVGID_4_);fill:#231F20;}
	.st2{clip-path:url(#SVGID_4_);}
	.st3{fill:#452E94;}
	.st4{fill:#231F20;}
	.st5{clip-path:url(#SVGID_6_);}
</style>
<g>
	<g>
		<path class="st4" d="M34.9,19.4c-3.5,0-6.3-2.8-6.3-6.3s2.8-6.3,6.3-6.3s6.3,2.8,6.3,6.3S38.4,19.4,34.9,19.4z M34.9,7.3
			c-3.2,0-5.8,2.6-5.8,5.8s2.6,5.8,5.8,5.8s5.8-2.6,5.8-5.8S38.2,7.3,34.9,7.3z"/>
	</g>
	<g>
		<path class="st4" d="M31.9,11.7c-1.5,0-2.7-0.4-2.7-0.4l0.2-0.5c0.2,0.1,6.1,2,7.9-3.3l0.5,0.2C36.6,11,33.9,11.7,31.9,11.7z"/>
	</g>
	<g>
		<path class="st4" d="M39.3,11.8c-2.6,0-3.7-1.4-3.7-1.5l0.4-0.3c0.1,0.1,1.4,1.8,4.8,1.1l0.1,0.5C40.3,11.8,39.7,11.8,39.3,11.8z"
			/>
	</g>
	<g>
		<polygon class="st4" points="34.9,33.9 22.5,33.9 22.5,24.4 31.3,20.9 35.1,24.4 34.8,24.8 31.2,21.5 23,24.7 23,33.4 34.9,33.4 
					"/>
	</g>
	<g>
		<polygon class="st4" points="34.9,25.8 31,25.8 31,21.2 31.5,21.2 31.5,25.3 34.9,25.3 		"/>
	</g>
	<g>
		<polygon class="st4" points="32.7,33.8 32.2,33.6 33.6,28.3 33.6,25.6 34.1,25.6 34.1,28.3 		"/>
	</g>
	<g>
		<rect x="26.6" y="27.9" class="st4" width="0.5" height="5.7"/>
	</g>
	<g>
		<rect x="33.9" y="28" class="st4" width="1" height="0.5"/>
	</g>
	<g>
		<polygon class="st4" points="47.4,33.9 34.9,33.9 34.9,33.4 46.9,33.4 46.9,24.7 38.7,21.5 35.1,24.8 34.8,24.4 38.6,20.9 
			47.4,24.4 		"/>
	</g>
	<g>
		<polygon class="st4" points="38.9,25.8 34.9,25.8 34.9,25.3 38.4,25.3 38.4,21.2 38.9,21.2 		"/>
	</g>
	<g>
		<polygon class="st4" points="37.2,33.8 35.8,28.3 35.8,25.6 36.3,25.6 36.3,28.3 37.7,33.6 		"/>
	</g>
	<g>
		<rect x="42.8" y="27.9" class="st4" width="0.5" height="5.7"/>
	</g>
	<g>
		<rect x="34.9" y="28" class="st4" width="1" height="0.5"/>
	</g>
	<g>
		<rect x="34.7" y="33.9" class="st4" width="0.5" height="10"/>
	</g>
	<g>
		<polygon class="st4" points="57.5,47.9 57,47.9 57,40.5 12.9,40.5 12.9,47.9 12.4,47.9 12.4,40 57.5,40 		"/>
	</g>
	<g>
		<path class="st4" d="M12.6,56.9c-2.2,0-4-1.8-4-4c0-2.2,1.8-4,4-4c2.2,0,4,1.8,4,4C16.6,55.1,14.8,56.9,12.6,56.9z M12.6,49.5
			c-1.9,0-3.5,1.6-3.5,3.5s1.6,3.5,3.5,3.5s3.5-1.6,3.5-3.5S14.6,49.5,12.6,49.5z"/>
	</g>
	<g>
		<path class="st4" d="M9.8,53.3c-0.5,0-0.9-0.1-0.9-0.1L9,52.7c0.1,0,3.2,0.6,4.1-1.9l0.3-0.7l0.2,0.7c0,0.1,0.5,1.6,2.7,1.1
			l0.1,0.5c-1.8,0.5-2.6-0.4-3-0.9C12.5,53,10.9,53.3,9.8,53.3z"/>
	</g>
	<g>
		<polygon class="st4" points="19.7,64.4 19.2,64.4 19.2,58.6 6.5,58.6 6.5,64.4 6,64.4 6,58.1 19.7,58.1 		"/>
	</g>
	<g>
		<path class="st4" d="M34.6,56.9c-2.2,0-4-1.8-4-4c0-2.2,1.8-4,4-4c2.2,0,4,1.8,4,4C38.6,55.1,36.8,56.9,34.6,56.9z M34.6,49.5
			c-1.9,0-3.5,1.6-3.5,3.5s1.6,3.5,3.5,3.5s3.5-1.6,3.5-3.5S36.5,49.5,34.6,49.5z"/>
	</g>
	<g>
		<path class="st4" d="M31.8,53.3c-0.5,0-0.9-0.1-0.9-0.1l0.1-0.5c0.1,0,3.2,0.6,4.1-1.9l0.3-0.7l0.2,0.7c0,0.1,0.5,1.6,2.7,1.1
			l0.1,0.5c-1.8,0.5-2.6-0.4-3-0.9C34.5,53,32.8,53.3,31.8,53.3z"/>
	</g>
	<g>
		<polygon class="st4" points="41.6,64.4 41.1,64.4 41.1,58.6 28.4,58.6 28.4,64.4 27.9,64.4 27.9,58.1 41.6,58.1 		"/>
	</g>
	<g>
		<path class="st4" d="M57.2,56.9c-2.2,0-4-1.8-4-4c0-2.2,1.8-4,4-4s4,1.8,4,4C61.2,55.1,59.4,56.9,57.2,56.9z M57.2,49.5
			c-1.9,0-3.5,1.6-3.5,3.5s1.6,3.5,3.5,3.5s3.5-1.6,3.5-3.5S59.2,49.5,57.2,49.5z"/>
	</g>
	<g>
		<path class="st4" d="M54.4,53.3c-0.5,0-0.9-0.1-0.9-0.1l0.1-0.5c0.1,0,3.2,0.6,4.1-1.9l0.3-0.7l0.2,0.7c0,0.1,0.5,1.6,2.7,1.1
			l0.1,0.5c-1.8,0.5-2.6-0.4-3-0.9C57.1,53,55.5,53.3,54.4,53.3z"/>
	</g>
	<g>
		<polygon class="st4" points="64.3,64.4 63.8,64.4 63.8,58.6 51.1,58.6 51.1,64.4 50.6,64.4 50.6,58.1 64.3,58.1 		"/>
	</g>
</g>
</svg>
