<?xml version="1.0" encoding="utf-8"?>
<!-- Generator: Adobe Illustrator 21.1.0, SVG Export Plug-In . SVG Version: 6.00 Build 0)  -->
<svg version="1.1" id="Camada_1" xmlns="http://www.w3.org/2000/svg" xmlns:xlink="http://www.w3.org/1999/xlink" x="0px" y="0px"
	 viewBox="0 0 60 60" style="enable-background:new 0 0 60 60;" xml:space="preserve">
<style type="text/css">
	.st0{fill:#231F20;}
</style>
<g>
	<g>
		<path class="st0" d="M43.4,39.6l-9.3-3.3l4-9.2h0.1l10-6.5l2.2,0.9l0.8-1.4l2.9-9.7h3.3l-2,17.9l-0.1,0.1l-8.9,5.4L43.4,39.6z
			 M34.8,36l8.5,3l2.8-5.6h0.1l8.9-5.4L56.9,11h-2.4l-2.8,9.4l-1.1,1.8l-2.3-0.9l-9.7,6.2L34.8,36z"/>
	</g>
	<g>
		<path class="st0" d="M41.5,49.6L31.3,41l1.7-5.7l12.2,4L41.5,49.6z M31.8,40.8l9.5,7.9l3.3-9.3l-11.3-3.7L31.8,40.8z"/>
	</g>
	<g>
		<path class="st0" d="M40.8,42.1c-0.7,0-1.2-0.6-1.2-1.2s0.6-1.2,1.2-1.2c0.7,0,1.2,0.6,1.2,1.2S41.4,42.1,40.8,42.1z M40.8,40.2
			c-0.4,0-0.8,0.3-0.8,0.8c0,0.5,0.3,0.8,0.8,0.8s0.8-0.3,0.8-0.8C41.5,40.5,41.2,40.2,40.8,40.2z"/>
	</g>
	<g>
		
			<rect x="42.8" y="25.6" transform="matrix(0.7254 -0.6883 0.6883 0.7254 -4.8192 39.5567)" class="st0" width="8.8" height="0.5"/>
	</g>
	<g>
		<path class="st0" d="M16.5,39.6l-2.9-5.8l-9-5.5l-2-17.9h3.3l2.9,9.7l0.8,1.3l2.2-0.9l10,6.6l4,9.2L16.5,39.6z M5.1,28l8.9,5.4
			v0.1l2.7,5.6l8.5-3l-3.7-8.6l-9.7-6.2l-2.3,0.9l-1-1.8L5.6,11H3.2L5.1,28z"/>
	</g>
	<g>
		<path class="st0" d="M18.5,49.6l-3.7-10.5L15,39l12-3.9l1.7,5.7L18.5,49.6z M15.3,39.4l3.3,9.3l9.5-7.9l-1.5-5L15.3,39.4z"/>
	</g>
	<g>
		<path class="st0" d="M19.1,42.1c-0.7,0-1.2-0.6-1.2-1.2s0.6-1.2,1.2-1.2s1.2,0.6,1.2,1.2S19.8,42.1,19.1,42.1z M19.1,40.2
			c-0.4,0-0.8,0.3-0.8,0.8c0,0.5,0.3,0.8,0.8,0.8s0.8-0.3,0.8-0.8C19.9,40.5,19.6,40.2,19.1,40.2z"/>
	</g>
	<g>
		<rect x="12.5" y="21.4" transform="matrix(0.6887 -0.725 0.725 0.6887 -14.7447 17.3044)" class="st0" width="0.5" height="8.8"/>
	</g>
</g>
</svg>
