<?xml version="1.0" encoding="utf-8"?>
<!-- Generator: Adobe Illustrator 21.1.0, SVG Export Plug-In . SVG Version: 6.00 Build 0)  -->
<svg version="1.1" id="Camada_1" xmlns="http://www.w3.org/2000/svg" xmlns:xlink="http://www.w3.org/1999/xlink" x="0px" y="0px"
	 viewBox="0 0 60 60" style="enable-background:new 0 0 60 60;" xml:space="preserve">
<style type="text/css">
	.st0{fill:#231F20;}
</style>
<g>
	<g>
		<path class="st0" d="M11.3,54.3l0.8-14H3.6V5.7h52.9v34.8H28.6L11.3,54.3z M4,39.9h8.7l-0.8,13.5l16.5-13.5H56V6.1H4V39.9z"/>
	</g>
	<g>
		<rect x="12.3" y="11.6" class="st0" width="24.4" height="0.5"/>
	</g>
	<g>
		<rect x="41" y="11.6" class="st0" width="6.8" height="0.5"/>
	</g>
	<g>
		<rect x="41" y="22.2" class="st0" width="6.8" height="0.5"/>
	</g>
	<g>
		<rect x="12.3" y="27.4" class="st0" width="6.8" height="0.5"/>
	</g>
	<g>
		<rect x="41" y="32.8" class="st0" width="6.8" height="0.5"/>
	</g>
	<g>
		<rect x="12.3" y="16.8" class="st0" width="6.8" height="0.5"/>
	</g>
	<g>
		<rect x="23.6" y="16.8" class="st0" width="24.4" height="0.5"/>
	</g>
	<g>
		<rect x="12.3" y="22.2" class="st0" width="24.4" height="0.5"/>
	</g>
	<g>
		<rect x="23.6" y="27.4" class="st0" width="24.4" height="0.5"/>
	</g>
	<g>
		<rect x="12.3" y="32.8" class="st0" width="24.4" height="0.5"/>
	</g>
</g>
</svg>
