<?xml version="1.0" encoding="utf-8"?>
<!-- Generator: Adobe Illustrator 21.1.0, SVG Export Plug-In . SVG Version: 6.00 Build 0)  -->
<svg version="1.1" id="Camada_1" xmlns="http://www.w3.org/2000/svg" xmlns:xlink="http://www.w3.org/1999/xlink" x="0px" y="0px"
	 viewBox="0 0 60 60" style="enable-background:new 0 0 60 60;" xml:space="preserve">
<style type="text/css">
	.st0{fill:#231F20;}
</style>
<g>
	<g>
		<g>
			<g>
				<path class="st0" d="M14.2,51.1H5.7V34.3h8.5V51.1z M6.1,50.6h7.5V34.7H6.1V50.6z"/>
			</g>
		</g>
	</g>
	<g>
		<g>
			<g>
				<path class="st0" d="M24.2,51.1h-8.5V28.5h8.5V51.1z M16.1,50.6h7.5V29h-7.5V50.6z"/>
			</g>
		</g>
	</g>
	<g>
		<g>
			<g>
				<path class="st0" d="M34,51.1h-8.5v-30H34V51.1z M26.1,50.6h7.5V21.5h-7.5V50.6z"/>
			</g>
		</g>
	</g>
	<g>
		<g>
			<g>
				<path class="st0" d="M44,51.1h-8.5V16.9H44V51.1z M36,50.6h7.5V17.4H36V50.6z"/>
			</g>
		</g>
	</g>
	<g>
		<g>
			<g>
				<path class="st0" d="M54.3,51.1h-8.5V11.8h8.5C54.3,11.8,54.3,51.1,54.3,51.1z M46.3,50.6h7.5V12.2h-7.5V50.6z"/>
			</g>
		</g>
	</g>
	<g>
		<g>
			<g>
				<rect x="1.8" y="52.9" class="st0" width="56.5" height="0.5"/>
			</g>
		</g>
	</g>
	<g>
		<g>
			<g>
				<path class="st0" d="M4.1,29.5l-0.2-0.5C4.2,29,33.1,16.5,39.7,6.7L40.1,7C33.5,16.9,5.3,29.1,4.1,29.5z"/>
			</g>
		</g>
	</g>
	<g>
		<g>
			<g>
				<rect x="35.1" y="6.6" class="st0" width="4.8" height="0.5"/>
			</g>
		</g>
	</g>
	<g>
		<g>
			<g>
				<rect x="39.7" y="6.9" class="st0" width="0.5" height="5.8"/>
			</g>
		</g>
	</g>
</g>
</svg>
