<?xml version="1.0" encoding="utf-8"?>
<!-- Generator: Adobe Illustrator 21.1.0, SVG Export Plug-In . SVG Version: 6.00 Build 0)  -->
<svg version="1.1" id="Camada_1" xmlns="http://www.w3.org/2000/svg" xmlns:xlink="http://www.w3.org/1999/xlink" x="0px" y="0px"
	 viewBox="0 0 60 60" style="enable-background:new 0 0 60 60;" xml:space="preserve">
<style type="text/css">
	.st0{fill:#231F20;}
</style>
<g>
	<g>
		<path class="st0" d="M41.4,54.7H18.6v-6.6h22.8V54.7z M19.1,54.2h21.8v-5.6H19.1V54.2z"/>
	</g>
	<g>
		<path class="st0" d="M39,56.8H21v-3.2H39V56.8z M21.5,56.3h17.1v-2.2H21.5V56.3z"/>
	</g>
	<g>
		<path class="st0" d="M35.8,48.7H24.1l0.2-0.4c2.4-4.2,1.8-9.2,1.7-10.2c-8.3-2.6-9.9-10.8-10.1-12.1c-5.7-0.8-6.1-8.9-6.1-9V7.6
			h5.1V3.2h30.2v4.4h5.1V17c0,0.1-0.4,8.2-6.1,9c-0.2,1.4-1.8,9.6-10.1,12.1c-0.1,0.9-0.7,6,1.7,10.2L35.8,48.7z M25,48.2h10
			c-2.5-4.7-1.6-10-1.5-10.3v-0.2h0.1c8.9-2.6,9.9-11.9,10-11.9v-0.2h0.2c5.5-0.6,5.9-8.5,5.9-8.5V8.2h-5.1V3.7H15.4v4.4h-5.1V17
			c0,0.1,0.4,7.9,5.9,8.5h0.2v0.2c0,0.1,1.1,9.3,10,11.9h0.1v0.2C26.6,38.1,27.5,43.5,25,48.2z M43.6,22.7V10.3h3.9V17
			c0,0,0.3,4.2-3.5,5.6L43.6,22.7z M44.1,10.8V22c3.1-1.4,2.9-4.9,2.9-5v-6.2C47,10.8,44.1,10.8,44.1,10.8z M16.4,22.7l-0.3-0.1
			c-3.9-1.4-3.5-5.6-3.5-5.7v-6.6h3.8V22.7z M13,10.8V17c0,0.2-0.3,3.7,2.9,5V10.8H13z"/>
	</g>
</g>
</svg>
